<mxfile host="app.diagrams.net" modified="2023-06-15T00:48:05.395Z" agent="Mozilla/5.0 (Windows NT 10.0; Win64; x64) AppleWebKit/537.36 (KHTML, like Gecko) Chrome/114.0.0.0 Safari/537.36" etag="QhHZFEf4MiYsr2jdyY5p" version="21.3.8" type="github">
  <diagram name="Page-1" id="-m535Gvj9HWrr5JU3uOQ">
    <mxGraphModel dx="880" dy="476" grid="1" gridSize="10" guides="1" tooltips="1" connect="1" arrows="1" fold="1" page="1" pageScale="1" pageWidth="2339" pageHeight="3300" math="0" shadow="0">
      <root>
        <mxCell id="0" />
        <mxCell id="1" parent="0" />
        <mxCell id="Xr4UJLV_JsUPOTtnbt0A-10" value="" style="edgeStyle=orthogonalEdgeStyle;rounded=0;orthogonalLoop=1;jettySize=auto;html=1;" edge="1" parent="1" source="FFAa35aiZCy0ZePJEGkV-4" target="Xr4UJLV_JsUPOTtnbt0A-9">
          <mxGeometry relative="1" as="geometry" />
        </mxCell>
        <mxCell id="FFAa35aiZCy0ZePJEGkV-4" value="Classe implementa banco (Dapper)&lt;br&gt;&lt;br&gt;ClientRepository.cs" style="rounded=1;whiteSpace=wrap;html=1;" parent="1" vertex="1">
          <mxGeometry x="10" y="80" width="180" height="90" as="geometry" />
        </mxCell>
        <mxCell id="Xr4UJLV_JsUPOTtnbt0A-1" value="Classe Abstrata (Interface)&lt;br&gt;&lt;br&gt;IClientRepository.cs" style="rounded=1;whiteSpace=wrap;html=1;" vertex="1" parent="1">
          <mxGeometry x="250" y="80" width="180" height="90" as="geometry" />
        </mxCell>
        <mxCell id="Xr4UJLV_JsUPOTtnbt0A-2" value="Client.cs" style="rounded=1;whiteSpace=wrap;html=1;" vertex="1" parent="1">
          <mxGeometry x="490" y="80" width="180" height="90" as="geometry" />
        </mxCell>
        <mxCell id="Xr4UJLV_JsUPOTtnbt0A-9" value="" style="whiteSpace=wrap;html=1;rounded=1;" vertex="1" parent="1">
          <mxGeometry x="40" y="205" width="120" height="60" as="geometry" />
        </mxCell>
        <mxCell id="Xr4UJLV_JsUPOTtnbt0A-11" value="Program.cs" style="rounded=1;whiteSpace=wrap;html=1;" vertex="1" parent="1">
          <mxGeometry x="730" y="80" width="180" height="90" as="geometry" />
        </mxCell>
        <mxCell id="Xr4UJLV_JsUPOTtnbt0A-12" value="APLICAÇÃO ARQUITERUTA | WEB PAGE - WEBAPP - RAZOR PAGES |" style="text;html=1;align=center;verticalAlign=middle;resizable=0;points=[];autosize=1;strokeColor=none;fillColor=none;" vertex="1" parent="1">
          <mxGeometry x="200" y="8" width="420" height="30" as="geometry" />
        </mxCell>
      </root>
    </mxGraphModel>
  </diagram>
</mxfile>
